<?xml version="1.0" encoding="utf-8"?>
<!-- Generator: Adobe Illustrator 16.0.0, SVG Export Plug-In . SVG Version: 6.00 Build 0)  -->
<!DOCTYPE svg PUBLIC "-//W3C//DTD SVG 1.1//EN" "http://www.w3.org/Graphics/SVG/1.1/DTD/svg11.dtd">
<svg version="1.1" id="图层_1" xmlns="http://www.w3.org/2000/svg" xmlns:xlink="http://www.w3.org/1999/xlink" x="0px" y="0px"
	 width="500px" height="500px" viewBox="0 0 500 500" enable-background="new 0 0 500 500" xml:space="preserve">
<polygon fill="#C9C9C9" stroke="#000000" stroke-miterlimit="10" points="319.495,471.227 318.577,288.64 444.005,219.741 
	443.418,402.289 "/>
<polygon fill="#EDEDED" stroke="#000000" stroke-miterlimit="10" points="65.326,419.996 64.187,225.041 318.577,288.64 
	318.577,472.365 "/>
<polygon fill="#ED7C7C" stroke="#000000" stroke-miterlimit="10" points="0,255.664 173.717,67.813 370.396,319.849 "/>
<polygon fill="#ff666a" stroke="#000000" stroke-miterlimit="10" points="370.396,319.849 173.717,67.813 316.811,26 
	499.946,251.54 "/>
<polygon fill="#ff999c" stroke="#000000" stroke-miterlimit="10" points="199.038,359.887 199.038,319.217 239.12,326.321 
	237.941,365.776 "/>
<polygon fill="#FFFFFF" stroke="#000000" stroke-miterlimit="10" points="243.792,368.13 243.792,327.46 283.873,334.564 
	282.696,374.02 "/>
<polygon fill="#FFFFFF" stroke="#000000" stroke-miterlimit="10" points="198.449,407.585 198.449,366.915 238.531,374.02 
	237.353,413.475 "/>
<polygon fill="#FFFFFF" stroke="#000000" stroke-miterlimit="10" points="242.614,414.651 242.614,373.981 282.696,381.086 
	281.517,420.541 "/>
</svg>
